<svg xmlns="http://www.w3.org/2000/svg" xmlns:xlink="http://www.w3.org/1999/xlink" width="128" zoomAndPan="magnify" viewBox="0 0 96 95.999999" height="128" preserveAspectRatio="xMidYMid meet" version="1.0"><defs><g/><clipPath id="09a74505dc"><path d="M 7.269531 6.355469 L 92.25 6.355469 L 92.25 91.339844 L 7.269531 91.339844 Z M 7.269531 6.355469 " clip-rule="nonzero"/></clipPath><clipPath id="a38a4466b4"><path d="M 49.761719 6.355469 C 26.292969 6.355469 7.269531 25.378906 7.269531 48.847656 C 7.269531 72.316406 26.292969 91.339844 49.761719 91.339844 C 73.226562 91.339844 92.25 72.316406 92.25 48.847656 C 92.25 25.378906 73.226562 6.355469 49.761719 6.355469 Z M 49.761719 6.355469 " clip-rule="nonzero"/></clipPath><clipPath id="4659d0aefe"><path d="M 0.269531 0.355469 L 85.25 0.355469 L 85.25 85.339844 L 0.269531 85.339844 Z M 0.269531 0.355469 " clip-rule="nonzero"/></clipPath><clipPath id="35e599ecd0"><path d="M 42.761719 0.355469 C 19.292969 0.355469 0.269531 19.378906 0.269531 42.847656 C 0.269531 66.316406 19.292969 85.339844 42.761719 85.339844 C 66.226562 85.339844 85.25 66.316406 85.25 42.847656 C 85.25 19.378906 66.226562 0.355469 42.761719 0.355469 Z M 42.761719 0.355469 " clip-rule="nonzero"/></clipPath><clipPath id="ee3f990a29"><rect x="0" width="86" y="0" height="86"/></clipPath><clipPath id="a7b798f74d"><path d="M 16 0.761719 L 50.640625 0.761719 L 50.640625 3 L 16 3 Z M 16 0.761719 " clip-rule="nonzero"/></clipPath><clipPath id="a77aa54cd4"><path d="M 1 1 L 3 1 L 3 49.238281 L 1 49.238281 Z M 1 1 " clip-rule="nonzero"/></clipPath><clipPath id="19c414f829"><path d="M 1 47 L 50 47 L 50 49.238281 L 1 49.238281 Z M 1 47 " clip-rule="nonzero"/></clipPath><clipPath id="408f86afc3"><path d="M 0.960938 0.761719 L 22 0.761719 L 22 13 L 0.960938 13 Z M 0.960938 0.761719 " clip-rule="nonzero"/></clipPath><clipPath id="1acfb4b39c"><path d="M 48 0.761719 L 50.640625 0.761719 L 50.640625 15 L 48 15 Z M 48 0.761719 " clip-rule="nonzero"/></clipPath><clipPath id="b54e2763b4"><rect x="0" width="18" y="0" height="40"/></clipPath><clipPath id="9298e72652"><rect x="0" width="51" y="0" height="50"/></clipPath></defs><g clip-path="url(#09a74505dc)"><g clip-path="url(#a38a4466b4)"><g transform="matrix(1, 0, 0, 1, 7, 6)"><g clip-path="url(#ee3f990a29)"><g clip-path="url(#4659d0aefe)"><g clip-path="url(#35e599ecd0)"><path fill="#b94e10" d="M 0.269531 0.355469 L 85.25 0.355469 L 85.25 85.339844 L 0.269531 85.339844 Z M 0.269531 0.355469 " fill-opacity="1" fill-rule="nonzero"/></g></g></g></g></g></g><g transform="matrix(1, 0, 0, 1, 24, 23)"><g clip-path="url(#9298e72652)"><g clip-path="url(#a7b798f74d)"><path stroke-linecap="round" transform="matrix(0.113727, 0, 0, 0.113727, 16.821165, 0.829865)" fill="none" stroke-linejoin="miter" d="M 7.995485 7.987688 L 288.20299 7.987688 " stroke="#ffffff" stroke-width="16" stroke-opacity="1" stroke-miterlimit="4"/></g><g clip-path="url(#a77aa54cd4)"><path stroke-linecap="round" transform="matrix(0, -0.113727, 0.113727, 0, 1.038454, 49.169621)" fill="none" stroke-linejoin="miter" d="M 7.983162 8.008332 L 410.055858 8.008332 " stroke="#ffffff" stroke-width="16" stroke-opacity="1" stroke-miterlimit="4"/></g><g clip-path="url(#19c414f829)"><path stroke-linecap="round" transform="matrix(0.113727, 0.000000000000000061, -0.000000000000000061, 0.113727, 1.013622, 47.350505)" fill="none" stroke-linejoin="miter" d="M 7.986253 8.012286 L 419.332793 8.012286 " stroke="#ffffff" stroke-width="16" stroke-opacity="1" stroke-miterlimit="4"/></g><g clip-path="url(#408f86afc3)"><path stroke-linecap="round" transform="matrix(0.113712, 0.00185551, -0.00185551, 0.113712, 1.043036, 0.829866)" fill="none" stroke-linejoin="miter" d="M 7.996523 7.995659 L 86.147586 7.991445 " stroke="#ffffff" stroke-width="16" stroke-opacity="1" stroke-miterlimit="4"/></g><g clip-path="url(#1acfb4b39c)"><path stroke-linecap="round" transform="matrix(0, -0.113727, 0.113727, 0, 48.66538, 14.333597)" fill="none" stroke-linejoin="miter" d="M 8.016757 7.991401 L 110.750349 7.991401 " stroke="#ffffff" stroke-width="16" stroke-opacity="1" stroke-miterlimit="4"/></g><g transform="matrix(1, 0, 0, 1, 17, 6)"><g clip-path="url(#b54e2763b4)"><g fill="#ffffff" fill-opacity="1"><g transform="translate(0.600677, 30.737624)"><g><path d="M 15.390625 -20.140625 L 15.390625 -16.8125 L 6.59375 -16.8125 L 6.59375 -11.484375 L 14.578125 -11.484375 L 14.578125 -8.1875 L 6.59375 -8.1875 L 6.59375 0 L 2.625 0 L 2.625 -20.140625 Z M 15.390625 -20.140625 "/></g></g></g></g></g></g></g></svg>