<svg xmlns="http://www.w3.org/2000/svg" xmlns:xlink="http://www.w3.org/1999/xlink" width="256" zoomAndPan="magnify" viewBox="0 0 192 191.999996" height="256" preserveAspectRatio="xMidYMid meet" version="1.0"><defs><g/><clipPath id="17cf0b7236"><path d="M 0.640625 1 L 8 1 L 8 146 L 0.640625 146 Z M 0.640625 1 " clip-rule="nonzero"/></clipPath><clipPath id="4193e9e852"><path d="M 0.640625 0.320312 L 67 0.320312 L 67 42 L 0.640625 42 Z M 0.640625 0.320312 " clip-rule="nonzero"/></clipPath><clipPath id="6c46894f87"><path d="M 1 140 L 149 140 L 149 146.960938 L 1 146.960938 Z M 1 140 " clip-rule="nonzero"/></clipPath><clipPath id="efedb207fa"><path d="M 144 1 L 151.601562 1 L 151.601562 43 L 144 43 Z M 144 1 " clip-rule="nonzero"/></clipPath><clipPath id="d9793cb1c1"><rect x="0" width="51" y="0" height="117"/></clipPath><clipPath id="3bfdf88aaa"><rect x="0" width="152" y="0" height="147"/></clipPath></defs><g transform="matrix(1, 0, 0, 1, 20, 22)"><g clip-path="url(#3bfdf88aaa)"><path stroke-linecap="round" transform="matrix(1.068762, 0, 0, 1.068762, 48.982845, 1.136074)" fill="none" stroke-linejoin="miter" d="M 2.998474 3.0013 L 92.240878 3.0013 " stroke="#fff9e6" stroke-width="6" stroke-opacity="1" stroke-miterlimit="4"/><g clip-path="url(#17cf0b7236)"><path stroke-linecap="round" transform="matrix(0, -1.068762, 1.068762, 0, 0.828455, 145.193388)" fill="none" stroke-linejoin="miter" d="M 2.998896 3.000389 L 131.422156 3.000389 " stroke="#fff9e6" stroke-width="6" stroke-opacity="1" stroke-miterlimit="4"/></g><g clip-path="url(#4193e9e852)"><path stroke-linecap="round" transform="matrix(1.06862, 0.0174374, -0.0174374, 1.06862, 1.313479, 1.136138)" fill="none" stroke-linejoin="miter" d="M 3.001616 3.000181 L 27.269903 2.998964 " stroke="#fff9e6" stroke-width="6" stroke-opacity="1" stroke-miterlimit="4"/></g><g clip-path="url(#6c46894f87)"><path stroke-linecap="round" transform="matrix(1.068762, 0, 0, 1.068762, 1.217144, 140.451339)" fill="none" stroke-linejoin="miter" d="M 2.998545 2.998713 L 134.404212 2.998713 " stroke="#fff9e6" stroke-width="6" stroke-opacity="1" stroke-miterlimit="4"/></g><g clip-path="url(#efedb207fa)"><path stroke-linecap="round" transform="matrix(0, -1.068762, 1.068762, 0, 144.746324, 42.070761)" fill="none" stroke-linejoin="miter" d="M 3.001117 3.000482 L 35.179116 3.000482 " stroke="#fff9e6" stroke-width="6" stroke-opacity="1" stroke-miterlimit="4"/></g><g transform="matrix(1, 0, 0, 1, 51, 16)"><g clip-path="url(#d9793cb1c1)"><g fill="#fff9e6" fill-opacity="1"><g transform="translate(0.383552, 91.108231)"><g><path d="M 46.515625 -60.890625 L 46.515625 -50.8125 L 19.953125 -50.8125 L 19.953125 -34.6875 L 44.0625 -34.6875 L 44.0625 -24.734375 L 19.953125 -24.734375 L 19.953125 0 L 7.90625 0 L 7.90625 -60.890625 Z M 46.515625 -60.890625 "/></g></g></g></g></g></g></g></svg>