<svg xmlns="http://www.w3.org/2000/svg" xmlns:xlink="http://www.w3.org/1999/xlink" width="1024" zoomAndPan="magnify" viewBox="0 0 768 767.999994" height="1024" preserveAspectRatio="xMidYMid meet" version="1.0"><defs><g/><clipPath id="b35593ba3f"><path d="M 0.640625 4 L 23 4 L 23 482 L 0.640625 482 Z M 0.640625 4 " clip-rule="nonzero"/></clipPath><clipPath id="dd8a4bfd2f"><path d="M 0.640625 0.921875 L 220 0.921875 L 220 136 L 0.640625 136 Z M 0.640625 0.921875 " clip-rule="nonzero"/></clipPath><clipPath id="191f76a1ce"><path d="M 2 465 L 489 465 L 489 486.679688 L 2 486.679688 Z M 2 465 " clip-rule="nonzero"/></clipPath><clipPath id="e047af6e41"><rect x="0" width="167" y="0" height="385"/></clipPath><clipPath id="2f0fc7d8a7"><rect x="0" width="501" y="0" height="487"/></clipPath></defs><g transform="matrix(1, 0, 0, 1, 134, 139)"><g clip-path="url(#2f0fc7d8a7)"><path stroke-linecap="round" transform="matrix(3.543239, 0, 0, 3.543239, 160.43074, 3.43616)" fill="none" stroke-linejoin="miter" d="M 2.999474 3.000149 L 92.240738 3.000149 " stroke="#b94e10" stroke-width="6" stroke-opacity="1" stroke-miterlimit="4"/><g clip-path="url(#b35593ba3f)"><path stroke-linecap="round" transform="matrix(0, -3.543239, 3.543239, 0, 0.785763, 481.025565)" fill="none" stroke-linejoin="miter" d="M 3.000372 2.9996 L 131.421669 2.9996 " stroke="#b94e10" stroke-width="6" stroke-opacity="1" stroke-miterlimit="4"/></g><g clip-path="url(#dd8a4bfd2f)"><path stroke-linecap="round" transform="matrix(3.542767, 0.0578097, -0.0578097, 3.542767, 2.393751, 3.43638)" fill="none" stroke-linejoin="miter" d="M 2.999728 3.000052 L 27.271224 2.999831 " stroke="#b94e10" stroke-width="6" stroke-opacity="1" stroke-miterlimit="4"/></g><g clip-path="url(#191f76a1ce)"><path stroke-linecap="round" transform="matrix(3.543239, 0, 0, 3.543239, 2.074371, 465.304342)" fill="none" stroke-linejoin="miter" d="M 2.999728 2.999869 L 134.405362 2.999869 " stroke="#b94e10" stroke-width="6" stroke-opacity="1" stroke-miterlimit="4"/></g><path stroke-linecap="round" transform="matrix(0, -3.543239, 3.543239, 0, 477.912853, 139.145856)" fill="none" stroke-linejoin="miter" d="M 3.000145 3.000113 L 35.180712 3.000113 " stroke="#b94e10" stroke-width="6" stroke-opacity="1" stroke-miterlimit="4"/><g transform="matrix(1, 0, 0, 1, 167, 55)"><g clip-path="url(#e047af6e41)"><g fill="#b94e10" fill-opacity="1"><g transform="translate(1.389713, 299.762859)"><g><path d="M 154.21875 -201.859375 L 154.21875 -168.4375 L 66.140625 -168.4375 L 66.140625 -115.015625 L 146.078125 -115.015625 L 146.078125 -82.015625 L 66.140625 -82.015625 L 66.140625 0 L 26.234375 0 L 26.234375 -201.859375 Z M 154.21875 -201.859375 "/></g></g></g></g></g></g></g></svg>