<svg xmlns="http://www.w3.org/2000/svg" xmlns:xlink="http://www.w3.org/1999/xlink" width="1200" zoomAndPan="magnify" viewBox="0 0 900 449.999984" height="600" preserveAspectRatio="xMidYMid meet" version="1.0"><defs><g/><clipPath id="5d605c5b63"><rect x="0" width="109" y="0" height="255"/></clipPath><clipPath id="44aa12842f"><rect x="0" width="553" y="0" height="255"/></clipPath></defs><path stroke-linecap="round" transform="matrix(0.75, 0, 0, 0.75, 177.103625, 65.360378)" fill="none" stroke-linejoin="miter" d="M 9.502459 9.498663 L 278.950397 9.498663 " stroke="#f59e0b" stroke-width="19" stroke-opacity="1" stroke-miterlimit="4"/><path stroke-linecap="round" transform="matrix(0.75, 0.000000000000003488, -0.000000000000003488, 0.75, 69.02884, 65.360378)" fill="none" stroke-linejoin="miter" d="M 9.498006 9.498663 L 82.164678 9.498663 " stroke="#f59e0b" stroke-width="19" stroke-opacity="1" stroke-miterlimit="4"/><path stroke-linecap="round" transform="matrix(0, -0.75, 0.75, 0, 67.981696, 382.071913)" fill="none" stroke-linejoin="miter" d="M 9.502135 9.498365 L 409.684458 9.498365 " stroke="#f59e0b" stroke-width="19" stroke-opacity="1" stroke-miterlimit="4"/><path stroke-linecap="round" transform="matrix(0.75, 0, 0, 0.75, 69.02884, 370.389581)" fill="none" stroke-linejoin="miter" d="M 9.498006 9.501393 L 406.649079 9.501393 " stroke="#f59e0b" stroke-width="19" stroke-opacity="1" stroke-miterlimit="4"/><path stroke-linecap="round" transform="matrix(0, -0.75, 0.75, 0, 380.226841, 155.694069)" fill="none" stroke-linejoin="miter" d="M 9.498343 9.499629 L 109.560851 9.499629 " stroke="#f59e0b" stroke-width="19" stroke-opacity="1" stroke-miterlimit="4"/><g transform="matrix(1, 0, 0, 1, 174, 106)"><g clip-path="url(#5d605c5b63)"><g fill="#f59e0b" fill-opacity="1"><g transform="translate(0.101106, 199.435884)"><g><path d="M 101.796875 -133.234375 L 101.796875 -111.1875 L 43.65625 -111.1875 L 43.65625 -75.90625 L 96.421875 -75.90625 L 96.421875 -54.140625 L 43.65625 -54.140625 L 43.65625 0 L 17.3125 0 L 17.3125 -133.234375 Z M 101.796875 -133.234375 "/></g></g></g></g></g><g transform="matrix(1, 0, 0, 1, 281, 97)"><g clip-path="url(#44aa12842f)"><g fill="#f59e0b" fill-opacity="1"><g transform="translate(0.823422, 199.220084)"><g><path d="M 58.421875 1.90625 C 48.578125 1.90625 39.929688 -0.109375 32.484375 -4.140625 C 25.046875 -8.179688 19.273438 -14.101562 15.171875 -21.90625 C 11.066406 -29.71875 9.015625 -39.15625 9.015625 -50.21875 C 9.015625 -61.269531 11.066406 -70.710938 15.171875 -78.546875 C 19.273438 -86.390625 25.046875 -92.332031 32.484375 -96.375 C 39.929688 -100.414062 48.578125 -102.4375 58.421875 -102.4375 C 68.265625 -102.4375 76.90625 -100.414062 84.34375 -96.375 C 91.78125 -92.332031 97.566406 -86.390625 101.703125 -78.546875 C 105.835938 -70.710938 107.90625 -61.269531 107.90625 -50.21875 C 107.90625 -39.15625 105.835938 -29.71875 101.703125 -21.90625 C 97.566406 -14.101562 91.78125 -8.179688 84.34375 -4.140625 C 76.90625 -0.109375 68.265625 1.90625 58.421875 1.90625 Z M 58.421875 -19.5 C 74.035156 -19.5 81.84375 -29.738281 81.84375 -50.21875 C 81.84375 -60.84375 79.835938 -68.628906 75.828125 -73.578125 C 71.816406 -78.535156 66.015625 -81.015625 58.421875 -81.015625 C 42.804688 -81.015625 35 -70.75 35 -50.21875 C 35 -29.738281 42.804688 -19.5 58.421875 -19.5 Z M 58.421875 -19.5 "/></g></g><g transform="translate(117.659305, 199.220084)"><g><path d="M 58.59375 1.90625 C 48.875 1.90625 40.273438 -0.109375 32.796875 -4.140625 C 25.328125 -8.179688 19.492188 -14.117188 15.296875 -21.953125 C 11.109375 -29.796875 9.015625 -39.21875 9.015625 -50.21875 C 9.015625 -61.269531 11.109375 -70.710938 15.296875 -78.546875 C 19.492188 -86.390625 25.296875 -92.332031 32.703125 -96.375 C 40.117188 -100.414062 48.597656 -102.4375 58.140625 -102.4375 C 79.347656 -102.4375 92.925781 -94.75 98.875 -79.375 L 81.5625 -66.984375 L 79.65625 -66.984375 C 77.582031 -71.722656 74.890625 -75.242188 71.578125 -77.546875 C 68.273438 -79.859375 63.796875 -81.015625 58.140625 -81.015625 C 50.847656 -81.015625 45.164062 -78.492188 41.09375 -73.453125 C 37.03125 -68.410156 35 -60.664062 35 -50.21875 C 35 -39.882812 37.0625 -32.179688 41.1875 -27.109375 C 45.320312 -22.035156 51.125 -19.5 58.59375 -19.5 C 64.0625 -19.5 68.691406 -20.972656 72.484375 -23.921875 C 76.285156 -26.867188 79.007812 -31.109375 80.65625 -36.640625 L 82.5625 -36.8125 L 100.515625 -26.96875 C 97.960938 -18.46875 93.238281 -11.53125 86.34375 -6.15625 C 79.445312 -0.78125 70.195312 1.90625 58.59375 1.90625 Z M 58.59375 1.90625 "/></g></g><g transform="translate(221.280521, 199.220084)"><g><path d="M 39.1875 1.90625 C 32.75 1.90625 27.160156 0.722656 22.421875 -1.640625 C 17.679688 -4.003906 14.035156 -7.476562 11.484375 -12.0625 C 8.929688 -16.65625 7.65625 -22.171875 7.65625 -28.609375 C 7.65625 -34.566406 8.929688 -39.566406 11.484375 -43.609375 C 14.035156 -47.648438 17.984375 -50.957031 23.328125 -53.53125 C 28.671875 -56.113281 35.660156 -58.109375 44.296875 -59.515625 C 50.304688 -60.484375 54.875 -61.546875 58 -62.703125 C 61.132812 -63.859375 63.25 -65.164062 64.34375 -66.625 C 65.4375 -68.082031 65.984375 -69.929688 65.984375 -72.171875 C 65.984375 -75.390625 64.859375 -77.847656 62.609375 -79.546875 C 60.359375 -81.253906 56.625 -82.109375 51.40625 -82.109375 C 45.8125 -82.109375 40.492188 -80.863281 35.453125 -78.375 C 30.410156 -75.882812 26.035156 -72.601562 22.328125 -68.53125 L 20.5 -68.53125 L 9.9375 -84.484375 C 15.039062 -90.128906 21.265625 -94.53125 28.609375 -97.6875 C 35.960938 -100.851562 43.984375 -102.4375 52.671875 -102.4375 C 65.984375 -102.4375 75.613281 -99.609375 81.5625 -93.953125 C 87.519531 -88.304688 90.5 -80.289062 90.5 -69.90625 L 90.5 -26.25 C 90.5 -21.75 92.472656 -19.5 96.421875 -19.5 C 97.941406 -19.5 99.429688 -19.773438 100.890625 -20.328125 L 102.15625 -19.953125 L 103.984375 -2.375 C 102.585938 -1.457031 100.640625 -0.707031 98.140625 -0.125 C 95.648438 0.445312 92.921875 0.734375 89.953125 0.734375 C 83.929688 0.734375 79.234375 -0.421875 75.859375 -2.734375 C 72.492188 -5.046875 70.082031 -8.660156 68.625 -13.578125 L 66.703125 -13.765625 C 61.785156 -3.316406 52.613281 1.90625 39.1875 1.90625 Z M 47.203125 -16.953125 C 53.035156 -16.953125 57.695312 -18.910156 61.1875 -22.828125 C 64.6875 -26.742188 66.4375 -32.195312 66.4375 -39.1875 L 66.4375 -49.390625 L 64.703125 -49.765625 C 63.179688 -48.546875 61.191406 -47.523438 58.734375 -46.703125 C 56.273438 -45.878906 52.738281 -45.078125 48.125 -44.296875 C 42.65625 -43.378906 38.71875 -41.8125 36.3125 -39.59375 C 33.914062 -37.375 32.71875 -34.234375 32.71875 -30.171875 C 32.71875 -25.847656 33.992188 -22.5625 36.546875 -20.3125 C 39.097656 -18.070312 42.648438 -16.953125 47.203125 -16.953125 Z M 47.203125 -16.953125 "/></g></g><g transform="translate(327.271264, 199.220084)"><g><path d="M 14.484375 0 L 14.484375 -100.515625 L 38.734375 -100.515625 L 38.734375 -85.75 L 40.640625 -85.296875 C 46.898438 -96.722656 57.046875 -102.4375 71.078125 -102.4375 C 82.679688 -102.4375 91.203125 -99.273438 96.640625 -92.953125 C 102.078125 -86.640625 104.796875 -77.4375 104.796875 -65.34375 L 104.796875 0 L 79.5625 0 L 79.5625 -62.25 C 79.5625 -68.925781 78.222656 -73.738281 75.546875 -76.6875 C 72.878906 -79.632812 68.597656 -81.109375 62.703125 -81.109375 C 55.472656 -81.109375 49.835938 -78.769531 45.796875 -74.09375 C 41.753906 -69.414062 39.734375 -62.0625 39.734375 -52.03125 L 39.734375 0 Z M 14.484375 0 "/></g></g><g transform="translate(445.018504, 199.220084)"><g><path d="M 39.1875 1.90625 C 32.75 1.90625 27.160156 0.722656 22.421875 -1.640625 C 17.679688 -4.003906 14.035156 -7.476562 11.484375 -12.0625 C 8.929688 -16.65625 7.65625 -22.171875 7.65625 -28.609375 C 7.65625 -34.566406 8.929688 -39.566406 11.484375 -43.609375 C 14.035156 -47.648438 17.984375 -50.957031 23.328125 -53.53125 C 28.671875 -56.113281 35.660156 -58.109375 44.296875 -59.515625 C 50.304688 -60.484375 54.875 -61.546875 58 -62.703125 C 61.132812 -63.859375 63.25 -65.164062 64.34375 -66.625 C 65.4375 -68.082031 65.984375 -69.929688 65.984375 -72.171875 C 65.984375 -75.390625 64.859375 -77.847656 62.609375 -79.546875 C 60.359375 -81.253906 56.625 -82.109375 51.40625 -82.109375 C 45.8125 -82.109375 40.492188 -80.863281 35.453125 -78.375 C 30.410156 -75.882812 26.035156 -72.601562 22.328125 -68.53125 L 20.5 -68.53125 L 9.9375 -84.484375 C 15.039062 -90.128906 21.265625 -94.53125 28.609375 -97.6875 C 35.960938 -100.851562 43.984375 -102.4375 52.671875 -102.4375 C 65.984375 -102.4375 75.613281 -99.609375 81.5625 -93.953125 C 87.519531 -88.304688 90.5 -80.289062 90.5 -69.90625 L 90.5 -26.25 C 90.5 -21.75 92.472656 -19.5 96.421875 -19.5 C 97.941406 -19.5 99.429688 -19.773438 100.890625 -20.328125 L 102.15625 -19.953125 L 103.984375 -2.375 C 102.585938 -1.457031 100.640625 -0.707031 98.140625 -0.125 C 95.648438 0.445312 92.921875 0.734375 89.953125 0.734375 C 83.929688 0.734375 79.234375 -0.421875 75.859375 -2.734375 C 72.492188 -5.046875 70.082031 -8.660156 68.625 -13.578125 L 66.703125 -13.765625 C 61.785156 -3.316406 52.613281 1.90625 39.1875 1.90625 Z M 47.203125 -16.953125 C 53.035156 -16.953125 57.695312 -18.910156 61.1875 -22.828125 C 64.6875 -26.742188 66.4375 -32.195312 66.4375 -39.1875 L 66.4375 -49.390625 L 64.703125 -49.765625 C 63.179688 -48.546875 61.191406 -47.523438 58.734375 -46.703125 C 56.273438 -45.878906 52.738281 -45.078125 48.125 -44.296875 C 42.65625 -43.378906 38.71875 -41.8125 36.3125 -39.59375 C 33.914062 -37.375 32.71875 -34.234375 32.71875 -30.171875 C 32.71875 -25.847656 33.992188 -22.5625 36.546875 -20.3125 C 39.097656 -18.070312 42.648438 -16.953125 47.203125 -16.953125 Z M 47.203125 -16.953125 "/></g></g></g></g></g></svg>